<svg width="20" height="20" viewBox="0 0 20 20" fill="none" xmlns="http://www.w3.org/2000/svg">
<g clip-path="url(#clip0_531_8247)">
<path d="M14.8688 11.5763L14.9741 11.1343H6.59216L6.72766 11.6974H14.8397L14.8688 11.5763Z" fill="#A7AAAD"/>
<path d="M14.6364 12.542H6.93109L7.06687 13.1048H14.5009L14.6364 12.542Z" fill="#A7AAAD"/>
<path d="M19.7216 4H18.2893C17.6161 4 17.0356 4.46221 16.8779 5.12365L16.484 6.77641H6.34546C5.89704 6.77641 5.48114 6.98084 5.20416 7.33722C4.92718 7.69361 4.82905 8.15063 4.93488 8.59092L5.67968 11.6839L5.68282 11.6969L6.12753 13.5437C6.27443 14.1541 6.78219 14.5938 7.38921 14.6561L7.39206 14.6642H9.74226H12.0086C12.0086 14.6642 13.994 14.6642 14.1283 14.6642C14.2627 14.6642 14.3708 14.6232 14.3708 14.6232C14.8908 14.4972 15.3093 14.0887 15.4405 13.544L15.8561 11.8174L15.8635 11.786L17.0696 6.7767L17.4196 5.25571C17.5169 4.848 17.8743 4.56312 18.2893 4.56312H19.7216C19.8753 4.56312 20 4.43712 20 4.28171C20 4.12629 19.8753 4 19.7216 4ZM16.0113 8.76046L15.477 11.002L15.4456 11.1341L15.3141 11.6854L15.3113 11.6969L15.1079 12.5417L14.9724 13.1049L14.8988 13.4105C14.8865 13.4612 14.8703 13.5103 14.8503 13.557C14.8403 13.5803 14.8295 13.6031 14.8178 13.6253C14.7944 13.6697 14.7673 13.7115 14.7373 13.751C14.7222 13.7706 14.7065 13.7897 14.69 13.8078C14.6241 13.8808 14.5465 13.9425 14.4606 13.9898C14.4082 14.0189 14.3523 14.0428 14.2941 14.0607C14.2031 14.0944 14.1209 14.1011 14.1209 14.1011H12.0639H9.69206L9.6855 14.0967H7.45025C7.32731 14.0846 7.21064 14.0477 7.10652 13.9898C7.05289 13.9601 7.00269 13.9249 6.95619 13.8848C6.94678 13.8767 6.93793 13.8687 6.92881 13.8603C6.80358 13.7429 6.71116 13.5884 6.66837 13.4105L6.59477 13.1049L6.45928 12.5417L6.25589 11.6969L6.1204 11.1338L5.47601 8.45771C5.47202 8.44069 5.46831 8.42368 5.46517 8.40667C5.41867 8.1512 5.48171 7.89083 5.64174 7.68496C5.78066 7.50648 5.97577 7.38999 6.19228 7.35251C6.2422 7.34386 6.29326 7.33953 6.34518 7.33953H16.3496L16.0113 8.76046Z" fill="#A7AAAD"/>
<path d="M13.1867 15.6862C12.5392 15.6862 12.0123 15.1536 12.0123 14.4991C12.0123 13.8446 12.5392 13.312 13.1867 13.312C13.8342 13.312 14.3611 13.8446 14.3611 14.4991C14.3611 15.1536 13.8342 15.6862 13.1867 15.6862Z" fill="white"/>
<path d="M12.459 14.5007C12.459 14.907 12.7848 15.2362 13.1867 15.2362C13.5886 15.2362 13.9144 14.907 13.9144 14.5007C13.9144 14.0944 13.5886 13.7651 13.1867 13.7651C12.7848 13.7654 12.459 14.0947 12.459 14.5007Z" fill="#A7AAAD"/>
<path d="M8.5673 15.6862C7.91978 15.6862 7.39291 15.1536 7.39291 14.4991C7.39291 13.8446 7.91978 13.312 8.5673 13.312C9.21483 13.312 9.74169 13.8446 9.74169 14.4991C9.74169 15.1536 9.21483 15.6862 8.5673 15.6862Z" fill="white"/>
<path d="M8.56728 15.2362C8.96917 15.2362 9.29496 14.9069 9.29496 14.5007C9.29496 14.0945 8.96917 13.7651 8.56728 13.7651C8.16539 13.7651 7.8396 14.0945 7.8396 14.5007C7.8396 14.9069 8.16539 15.2362 8.56728 15.2362Z" fill="#A7AAAD"/>
<path d="M3.30412 15.2402H6.17178C6.3241 15.2402 6.44733 15.1153 6.44733 14.9616C6.44733 14.8077 6.32382 14.6831 6.17178 14.6831H3.30412C3.15179 14.6831 3.02856 14.808 3.02856 14.9616C3.02828 15.1153 3.15179 15.2402 3.30412 15.2402Z" fill="#A7AAAD"/>
<path d="M1.31392 15.2402H2.36451C2.51683 15.2402 2.64006 15.1153 2.64006 14.9616C2.64006 14.8077 2.51655 14.6831 2.36451 14.6831H1.31392C1.16159 14.6831 1.03836 14.808 1.03836 14.9616C1.03836 15.1153 1.16159 15.2402 1.31392 15.2402Z" fill="#A7AAAD"/>
<path d="M0.275555 15.2402H0.374253C0.526578 15.2402 0.649808 15.1153 0.649808 14.9616C0.649808 14.8077 0.526293 14.6831 0.374253 14.6831H0.275555C0.12323 14.6831 0 14.808 0 14.9616C0 15.1153 0.123515 15.2402 0.275555 15.2402Z" fill="#A7AAAD"/>
<path d="M4.39091 14.3256H5.08893C5.24125 14.3256 5.36448 14.2011 5.36448 14.0471C5.36448 13.8931 5.24097 13.7686 5.08893 13.7686H4.39091C4.23859 13.7686 4.11536 13.8934 4.11536 14.0471C4.11507 14.2008 4.23859 14.3256 4.39091 14.3256Z" fill="#A7AAAD"/>
<path d="M1.36238 14.3256H3.44929C3.60162 14.3256 3.72485 14.2011 3.72485 14.0471C3.72485 13.8931 3.60133 13.7686 3.44929 13.7686H1.36238C1.21005 13.7686 1.08682 13.8934 1.08682 14.0471C1.08682 14.2008 1.21034 14.3256 1.36238 14.3256Z" fill="#A7AAAD"/>
<path d="M7.71607 9.67279H6.50659L7.97793 6.78076H8.76694L7.71607 9.67279Z" fill="#A7AAAD"/>
<path d="M8.9256 9.67279H7.71613L8.767 6.78076H9.55601L8.9256 9.67279Z" fill="#A7AAAD"/>
<path d="M10.135 9.67279H8.92557L9.55598 6.78076H10.345L10.135 9.67279Z" fill="#A7AAAD"/>
<path d="M11.3443 9.67279H10.1351L10.345 6.78076H11.1343L11.3443 9.67279Z" fill="#A7AAAD"/>
<path d="M12.5537 9.67279H11.3442L11.1343 6.78076H11.9233L12.5537 9.67279Z" fill="#A7AAAD"/>
<path d="M14.9727 9.67279H13.7632L12.7123 6.78076H13.5014L14.9727 9.67279Z" fill="#A7AAAD"/>
<path d="M13.7633 9.67279H12.5538L11.9234 6.78076H12.7124L13.7633 9.67279Z" fill="#A7AAAD"/>
<path d="M7.71607 9.67383C7.71607 10.0115 7.44536 10.2851 7.11133 10.2851C6.7773 10.2851 6.50659 10.0115 6.50659 9.67383H7.71607Z" fill="#A7AAAD"/>
<path d="M8.9256 9.67383C8.9256 10.0115 8.6549 10.2851 8.32086 10.2851C7.98683 10.2851 7.71613 10.0115 7.71613 9.67383H8.9256Z" fill="#A7AAAD"/>
<path d="M10.135 9.67383C10.135 10.0115 9.86434 10.2851 9.53031 10.2851C9.19627 10.2851 8.92557 10.0115 8.92557 9.67383H10.135Z" fill="#A7AAAD"/>
<path d="M11.3443 9.67383C11.3443 10.0115 11.0736 10.2851 10.7396 10.2851C10.4055 10.2851 10.1348 10.0115 10.1348 9.67383H11.3443Z" fill="#A7AAAD"/>
<path d="M12.5537 9.67383C12.5537 10.0115 12.283 10.2851 11.949 10.2851C11.6149 10.2851 11.3442 10.0115 11.3442 9.67383H12.5537Z" fill="#A7AAAD"/>
<path d="M13.7632 9.67383C13.7632 10.0115 13.4925 10.2851 13.1584 10.2851C12.8244 10.2851 12.5537 10.0115 12.5537 9.67383H13.7632Z" fill="#A7AAAD"/>
<path d="M14.9727 9.67383C14.9727 10.0115 14.702 10.2851 14.3679 10.2851C14.0339 10.2851 13.7632 10.0115 13.7632 9.67383H14.9727Z" fill="#A7AAAD"/>
</g>
<defs>
<clipPath id="clip0_531_8247">
<rect width="20" height="20" fill="white"/>
</clipPath>
</defs>
</svg>
