<?xml version="1.0" encoding="utf-8"?>
<!-- Generator: Adobe Illustrator 24.3.0, SVG Export Plug-In . SVG Version: 6.00 Build 0)  -->
<svg version="1.1" id="Layer_1" xmlns="http://www.w3.org/2000/svg" xmlns:xlink="http://www.w3.org/1999/xlink" x="0px" y="0px"
	 viewBox="0 0 250 250" style="enable-background:new 0 0 250 250;" xml:space="preserve">
<style type="text/css">
	.st0{fill:url(#SVGID_1_);}
	.st1{fill:#FFFFFF;}
	.st2{fill:url(#SVGID_2_);}
	.st3{fill:url(#SVGID_3_);}
	.st4{fill:url(#SVGID_4_);}
	.st5{fill:url(#SVGID_5_);}
	.st6{fill:url(#SVGID_6_);}
	.st7{fill:#FDA504;}
	.st8{fill:#FEC00F;}
	.st9{fill:#1E3862;}
	.st10{fill:#00274E;}
</style>
<linearGradient id="SVGID_1_" gradientUnits="userSpaceOnUse" x1="141.6242" y1="-26.8053" x2="105.8595" y2="299.7829">
	<stop  offset="0" style="stop-color:#0C4CA7"/>
	<stop  offset="1" style="stop-color:#002093"/>
</linearGradient>
<rect y="0" class="st0" width="250" height="250"/>
<polygon class="st1" points="181.8,148.69 183.09,143.34 80.6,143.34 82.26,150.15 181.44,150.15 "/>
<polygon class="st1" points="178.96,160.37 84.75,160.37 86.4,167.18 177.3,167.18 "/>
<linearGradient id="SVGID_2_" gradientUnits="userSpaceOnUse" x1="59.8274" y1="176.7858" x2="244.5376" y2="176.7858">
	<stop  offset="0" style="stop-color:#002093"/>
	<stop  offset="1" style="stop-color:#0C4CA7"/>
</linearGradient>
<path class="st2" d="M176.81,177.89c1.05-0.58,2-1.32,2.8-2.2C178.81,176.57,177.86,177.31,176.81,177.89z"/>
<linearGradient id="SVGID_3_" gradientUnits="userSpaceOnUse" x1="59.8274" y1="174.2373" x2="244.5376" y2="174.2373">
	<stop  offset="0" style="stop-color:#002093"/>
	<stop  offset="1" style="stop-color:#0C4CA7"/>
</linearGradient>
<path class="st3" d="M181.18,173.48c-0.29,0.54-0.62,1.04-0.98,1.52C180.56,174.52,180.89,174.01,181.18,173.48z"/>
<linearGradient id="SVGID_4_" gradientUnits="userSpaceOnUse" x1="59.8274" y1="175.3408" x2="244.5376" y2="175.3408">
	<stop  offset="0" style="stop-color:#002093"/>
	<stop  offset="1" style="stop-color:#0C4CA7"/>
</linearGradient>
<path class="st4" d="M180.19,175c-0.18,0.24-0.38,0.47-0.58,0.69C179.81,175.46,180.01,175.23,180.19,175z"/>
<linearGradient id="SVGID_5_" gradientUnits="userSpaceOnUse" x1="59.8274" y1="173.0645" x2="244.5376" y2="173.0645">
	<stop  offset="0" style="stop-color:#002093"/>
	<stop  offset="1" style="stop-color:#0C4CA7"/>
</linearGradient>
<path class="st5" d="M181.57,172.65c-0.12,0.28-0.26,0.56-0.4,0.83C181.32,173.21,181.45,172.93,181.57,172.65z"/>
<path class="st1" d="M90.69,191.51c-1.1,0-2.2-0.15-3.26-0.44l-1.21-0.33c-8.12-2.15-14.58-8.61-16.61-16.95l-14.58-59.91
	c-1.7-6.97-0.13-14.19,4.3-19.83c4.43-5.64,11.08-8.87,18.25-8.87h119.66l3.81-15.81c2.52-10.47,11.8-17.78,22.57-17.78l17.25,0
	c4.77,0,8.88,3.66,9.11,8.42c0.25,5.09-3.82,9.31-8.86,9.31h-17.51c-2.54,0-4.73,1.72-5.32,4.19l-4.27,18.36l-14.85,61.01
	l-1.27,5.27l-0.02,0l-3.8,15.63c-2.05,8.41-8.49,14.91-16.85,17.01c-0.78,0.25-2.47,0.71-4.49,0.71H90.69z M172.31,173.77
	c0.15-0.03,0.38-0.08,0.58-0.15l0.14-0.05l0.14-0.04c0.36-0.11,0.7-0.25,1.01-0.43c0.53-0.29,1-0.66,1.4-1.1
	c0.1-0.11,0.2-0.22,0.29-0.35c0.18-0.23,0.35-0.49,0.49-0.76c0.07-0.14,0.14-0.27,0.2-0.42c0.12-0.28,0.22-0.58,0.3-0.89l5.08-20.87
	l11.04-45.81H77.58c-0.32,0-0.64,0.03-0.95,0.08c-1.32,0.23-2.52,0.94-3.36,2.01c-0.98,1.25-1.37,2.8-1.08,4.37
	c0.02,0.11,0.04,0.21,0.07,0.31l14.58,59.91c0.26,1.06,0.81,2,1.59,2.73c0.06,0.05,0.12,0.11,0.17,0.16
	c0.27,0.23,0.58,0.45,0.91,0.63c0.59,0.32,1.22,0.53,1.88,0.62h28.67l0.08,0.05H172.31z"/>
<linearGradient id="SVGID_6_" gradientUnits="userSpaceOnUse" x1="59.8274" y1="121.5458" x2="244.5376" y2="121.5458">
	<stop  offset="0" style="stop-color:#002093"/>
	<stop  offset="1" style="stop-color:#0C4CA7"/>
</linearGradient>
<path class="st6" d="M241.13,57.05h-17.51c-8.23,0-15.33,5.59-17.26,13.59l-4.82,19.99H77.58c-5.48,0-10.57,2.47-13.96,6.78
	c-3.39,4.31-4.59,9.84-3.29,15.16L69.44,150l0.04,0.16l5.44,22.34c1.8,7.38,8,12.7,15.43,13.46l0.03,0.1h28.74h27.71
	c0,0,24.27,0,25.92,0c1.64,0,2.96-0.5,2.96-0.5c6.36-1.52,11.48-6.47,13.08-13.06l5.08-20.88l0,0l0.09-0.38l14.75-60.59l4.28-18.4
	c1.19-4.93,5.56-8.38,10.63-8.38h17.51c1.88,0,3.41-1.52,3.41-3.41C244.54,58.57,243.01,57.05,241.13,57.05z M195.77,114.63
	l-6.53,27.11l-0.38,1.6l-1.61,6.67l-0.03,0.14l-2.49,10.22l-1.66,6.81l-0.9,3.7c-0.15,0.61-0.35,1.21-0.59,1.77
	c-0.12,0.28-0.26,0.56-0.4,0.83c-0.29,0.54-0.62,1.04-0.98,1.52c-0.18,0.24-0.38,0.47-0.58,0.69c-0.81,0.88-1.75,1.63-2.8,2.2
	c-0.64,0.35-1.33,0.64-2.04,0.86c-1.11,0.41-2.12,0.49-2.12,0.49h-25.15h-29l-0.08-0.05H91.1c-1.5-0.15-2.93-0.59-4.2-1.29
	c-0.66-0.36-1.27-0.79-1.84-1.27c-0.11-0.1-0.22-0.2-0.33-0.3c-1.53-1.42-2.66-3.29-3.19-5.44l-0.9-3.7l-1.66-6.81l-2.49-10.22
	l-1.66-6.81l-7.88-32.37c-0.05-0.21-0.09-0.41-0.13-0.62c-0.57-3.09,0.2-6.24,2.16-8.73c1.7-2.16,4.08-3.57,6.73-4.02
	c0.61-0.1,1.24-0.16,1.87-0.16h122.32h0L195.77,114.63z"/>
<path class="st1" d="M161.23,198.41c-7.92,0-14.36-6.44-14.36-14.36s6.44-14.36,14.36-14.36s14.36,6.44,14.36,14.36
	S169.15,198.41,161.23,198.41z"/>
<path class="st7" d="M152.34,184.06c0,4.91,3.98,8.9,8.9,8.9c4.91,0,8.9-3.98,8.9-8.9s-3.98-8.9-8.9-8.9
	C156.32,175.16,152.34,179.14,152.34,184.06z"/>
<path class="st1" d="M104.75,198.41c-7.92,0-14.36-6.44-14.36-14.36s6.44-14.36,14.36-14.36s14.36,6.44,14.36,14.36
	S112.67,198.41,104.75,198.41z"/>
<circle class="st7" cx="104.75" cy="184.06" r="8.9"/>
<path class="st1" d="M40.4,193h35.06c1.86,0,3.37-1.51,3.37-3.37l0,0c0-1.86-1.51-3.37-3.37-3.37H40.4c-1.86,0-3.37,1.51-3.37,3.37
	l0,0C37.03,191.49,38.54,193,40.4,193z"/>
<path class="st1" d="M16.06,193h12.85c1.86,0,3.37-1.51,3.37-3.37l0,0c0-1.86-1.51-3.37-3.37-3.37H16.06
	c-1.86,0-3.37,1.51-3.37,3.37l0,0C12.7,191.49,14.2,193,16.06,193z"/>
<path class="st1" d="M3.37,193h1.21c1.86,0,3.37-1.51,3.37-3.37l0,0c0-1.86-1.51-3.37-3.37-3.37H3.37c-1.86,0-3.37,1.51-3.37,3.37
	l0,0C0,191.49,1.51,193,3.37,193z"/>
<path class="st1" d="M53.69,181.94h8.54c1.86,0,3.37-1.51,3.37-3.37l0,0c0-1.86-1.51-3.37-3.37-3.37h-8.54
	c-1.86,0-3.37,1.51-3.37,3.37l0,0C50.32,180.43,51.82,181.94,53.69,181.94z"/>
<path class="st1" d="M16.66,181.94h25.51c1.86,0,3.37-1.51,3.37-3.37l0,0c0-1.86-1.51-3.37-3.37-3.37H16.66
	c-1.86,0-3.37,1.51-3.37,3.37l0,0C13.29,180.43,14.8,181.94,16.66,181.94z"/>
<polygon class="st8" points="94.34,125.67 79.56,125.67 97.55,90.69 107.19,90.69 "/>
<polygon class="st9" points="109.13,125.67 94.34,125.67 107.19,90.69 116.84,90.69 "/>
<polygon class="st8" points="123.92,125.67 109.13,125.67 116.84,90.69 126.49,90.69 "/>
<polygon class="st9" points="138.71,125.67 123.92,125.67 126.49,90.69 136.14,90.69 "/>
<polygon class="st8" points="153.49,125.67 138.71,125.67 136.14,90.69 145.78,90.69 "/>
<polygon class="st8" points="183.07,125.67 168.28,125.67 155.43,90.69 165.08,90.69 "/>
<polygon class="st9" points="168.28,125.67 153.49,125.67 145.78,90.69 155.43,90.69 "/>
<path class="st7" d="M94.34,125.67c0,4.08-3.31,7.39-7.39,7.39s-7.39-3.31-7.39-7.39H94.34z"/>
<path class="st10" d="M109.13,125.67c0,4.08-3.31,7.39-7.39,7.39s-7.39-3.31-7.39-7.39H109.13z"/>
<path class="st7" d="M123.92,125.67c0,4.08-3.31,7.39-7.39,7.39c-4.08,0-7.39-3.31-7.39-7.39H123.92z"/>
<path class="st10" d="M138.71,125.67c0,4.08-3.31,7.39-7.39,7.39c-4.08,0-7.39-3.31-7.39-7.39H138.71z"/>
<path class="st7" d="M153.49,125.67c0,4.08-3.31,7.39-7.39,7.39s-7.39-3.31-7.39-7.39H153.49z"/>
<path class="st10" d="M168.28,125.67c0,4.08-3.31,7.39-7.39,7.39s-7.39-3.31-7.39-7.39H168.28z"/>
<path class="st7" d="M183.07,125.67c0,4.08-3.31,7.39-7.39,7.39s-7.39-3.31-7.39-7.39H183.07z"/>
</svg>
